<svg width="20" height="20" viewBox="0 0 20 20" fill="none" xmlns="http://www.w3.org/2000/svg">
<path d="M10 18.0345C14.9706 18.0345 19 14.2212 19 9.51727C19 4.81331 14.9706 1 10 1C5.02944 1 1 4.81331 1 9.51727C1 14.2212 5.02944 18.0345 10 18.0345Z" stroke="#E6CE58" stroke-width="2" stroke-miterlimit="10" stroke-linecap="round" stroke-linejoin="round"/>
<path d="M13.6874 8.35083C14.0885 7.97121 14.1059 7.33829 13.7263 6.93715C13.3467 6.53602 12.7138 6.51858 12.3126 6.89819L13.6874 8.35083ZM9 11.41L8.31264 12.1363C8.69823 12.5012 9.30177 12.5012 9.68736 12.1363L9 11.41ZM7.68736 8.79092C7.28623 8.4113 6.6533 8.42874 6.27368 8.82988C5.89406 9.23101 5.91151 9.86394 6.31264 10.2436L7.68736 8.79092ZM12.3126 6.89819L8.31264 10.6836L9.68736 12.1363L13.6874 8.35083L12.3126 6.89819ZM9.68736 10.6836L7.68736 8.79092L6.31264 10.2436L8.31264 12.1363L9.68736 10.6836Z" fill="#E6CE58"/>
</svg>
